<?xml version="1.0" encoding="UTF-8"?>
<svg id="_Слой_1" data-name="Слой 1" xmlns="http://www.w3.org/2000/svg" xmlns:xlink="http://www.w3.org/1999/xlink" viewBox="0 0 5442.52 3061.42">
  <defs>
    <style>
      .cls-1 {
        fill: blue;
      }

      .cls-1, .cls-2, .cls-3 {
        stroke-width: 5px;
      }

      .cls-1, .cls-2, .cls-3, .cls-4 {
        stroke-miterlimit: 10;
      }

      .cls-1, .cls-3 {
        stroke: #fff;
      }

      .cls-5 {
        fill: #0c131c;
      }

      .cls-6 {
        fill: #0190ff;
      }

      .cls-7 {
        fill: #e8f0f9;
      }

      .cls-8, .cls-2 {
        fill: #fffefb;
      }

      .cls-9 {
        fill: url(#_Безымянный_градиент_62);
      }

      .cls-2 {
        stroke: url(#_Безымянный_градиент_10);
      }

      .cls-3 {
        fill: #020202;
      }

      .cls-4 {
        fill: url(#_Безымянный_градиент_114);
        stroke: url(#_Безымянный_градиент_114-2);
      }

      .cls-10 {
        fill: #1a212a;
      }
    </style>
    <linearGradient id="_Безымянный_градиент_114" data-name="Безымянный градиент 114" x1="1514.54" y1="2676.58" x2="7363.68" y2="2676.58" gradientUnits="userSpaceOnUse">
      <stop offset="0" stop-color="#fff" stop-opacity=".1"/>
      <stop offset=".82" stop-color="#c1c1c1" stop-opacity=".06"/>
      <stop offset="1" stop-color="#9c9c9c" stop-opacity=".05"/>
    </linearGradient>
    <linearGradient id="_Безымянный_градиент_114-2" data-name="Безымянный градиент 114" x1="1514.03" y1="2676.58" x2="7364.2" y2="2676.58" xlink:href="#_Безымянный_градиент_114"/>
    <linearGradient id="_Безымянный_градиент_62" data-name="Безымянный градиент 62" x1="2604.79" y1="1581.17" x2="7116.83" y2="1581.17" gradientUnits="userSpaceOnUse">
      <stop offset="0" stop-color="#fff" stop-opacity=".1"/>
      <stop offset="1" stop-color="#9c9c9c" stop-opacity=".05"/>
    </linearGradient>
    <linearGradient id="_Безымянный_градиент_10" data-name="Безымянный градиент 10" x1="2493.56" y1="1565.68" x2="3304.78" y2="1565.68" gradientUnits="userSpaceOnUse">
      <stop offset="0" stop-color="#fff" stop-opacity=".2"/>
      <stop offset="1" stop-color="#000" stop-opacity=".2"/>
    </linearGradient>
  </defs>
  <path class="cls-4" d="M1562.54,1030.01c-16,1104.67-32,2209.35-48,3314.02,1924.57,2.32,3849.14,4.64,5773.71,6.96,25.14-1116.28,50.29-2232.56,75.43-3348.83-1933.71,9.28-3867.43,18.57-5801.14,27.85Z"/>
  <path class="cls-9" d="M2654.73,1090.36c-45.75,40.6-49.43,93.27-49.93,103.38,2.47,237.92,4.94,475.83,7.41,713.75-.43,12.44-1.71,87.67,59.66,146.77,56.56,54.47,126.18,56.57,140.51,56.7,1354.88-1.11,2709.77-2.22,4064.65-3.34,11.89,.96,110.64,7.28,178.21-66.71,44.35-48.55,50.27-104.32,51.41-123.41,3.36-222.36,6.72-444.71,10.09-667.07,.41-10.25,2.14-89.8-64.92-146.75-65.25-55.41-143.32-45-154.22-43.36-1376.59-2.91-2753.18-5.82-4129.77-8.73-9.9-.59-66.05-3.01-113.09,38.75Z"/>
  <path class="cls-2" d="M2711.09,948.71c159.39,2.3,318.78,4.6,478.17,6.91,9.28-.5,25.5,.09,42.91,9.21,17.03,8.92,26.79,21.57,36.78,34.53,7.91,10.26,19.46,25.25,26.57,48.35,1.33,4.31,4.6,15.76,6.13,55.25,.62,16.11,1,38.1,0,64.46-40.87,294.68-81.74,589.37-122.61,884.05-1.14,14.18-4.59,37.27-16.35,62.16-5.39,11.4-13.8,28.78-30.65,43.74-24.2,21.48-50.96,24.77-63.35,25.32-190.72-1.53-381.45-3.07-572.17-4.6,71.52-409.79,143.04-819.59,214.56-1229.38Z"/>
  <path class="cls-5" d="M2745.83,1056.91c186.27-2.79,323.35-1.51,355.56,2.3,16.95,2.01,28.06,7.48,34.74,11.51,17.26,10.42,26.58,24.51,34.74,36.84,7.69,11.61,17.87,27.01,22.48,50.65,4.01,20.59,1.95,38.05,0,48.35-36.1,271.66-72.2,543.32-108.3,814.98-1.87,8.32-5.75,21.26-14.3,34.53-12.54,19.46-27.88,28.36-34.74,32.23-13.2,7.45-25.58,10.36-34.74,11.51-117.16,.77-234.32,1.53-351.48,2.3,32.01-348.4,64.03-696.8,96.04-1045.2Z"/>
  <path class="cls-10" d="M2796.92,1333.18h302.43c6.5,3.63,15.79,9.97,24.52,20.72,14.29,17.59,18.83,36.85,20.43,46.04-32.01,202.59-64.03,405.19-96.04,607.78-4.48,7.91-12.77,20.14-26.57,29.93-25.19,17.87-51.09,15.08-59.26,13.81-92.64,2.3-185.28,4.6-277.91,6.91,37.46-241.73,74.93-483.46,112.39-725.2Z"/>
  <path class="cls-6" d="M2179.79,2217.22c-38.9-63.15-218.22-402.33-457.74-870.23-4.47-13.13-10.39-36.01-8.17-64.46,.55-7,3.73-41.85,26.57-75.97,9.45-14.12,19.38-23.81,26.57-29.93,254.07-113.58,508.14-227.15,762.22-340.73,7.66-4.82,20.28-11.38,36.78-13.81,22.23-3.28,39.48,2.72,51.09,6.91,8.09,2.92,25.58,9.43,42.91,25.32,11.82,10.84,22.91,25.45,36.78,57.56,10.88,25.18,24.94,64.54,32.7,117.41,61.99,283.17,123.97,566.34,185.96,849.51,1.84,12.33,3.47,33.14-2.04,57.56-7.57,33.51-24.35,55.04-32.7,64.46-64.66,30.09-129.37,60.01-194.13,89.79-126.48,58.14-253.17,115.7-380.09,172.67-14.73,8.2-35.95,16.4-59.26,11.51-33.15-6.96-54.82-37.08-67.43-57.56Z"/>
  <path class="cls-8" d="M1928.44,1397.64c12.55-8.99,32.77-21.96,59.26-32.23,99.14-38.42,155.66,11.64,320.83,36.84,124.74,19.03,187.12,28.54,241.13,23.02,33.33-3.41,102.4-13.63,141,32.23,8.41,9.99,13.41,20.31,16.35,27.63,32.01,122.78,64.03,245.57,96.04,368.35,1.6,6.3,3.52,16.93,2.04,29.93-1.93,16.96-8.61,28.89-12.26,34.53-146.45,69.07-292.9,138.13-439.35,207.2-10.05,2.84-24.11,5.5-40.87,4.6-22.49-1.2-40.15-8.28-51.09-13.81-113.07-211.04-226.14-422.07-339.22-633.11-2.78-4.63-11.84-20.95-10.22-43.74,1.63-22.87,12.95-37.38,16.35-41.44Z"/>
  <path class="cls-7" d="M1981.57,1512.75c6-10.23,16.31-24.53,32.7-34.53,18.46-11.26,36.18-11.9,69.48-9.21,65.48,5.29,119.64,17.65,132.83,20.72,25.43,5.92,37.57,9.61,63.35,13.81,25.07,4.09,42.56,5.32,61.3,6.91,59.36,5.02,65.64,8.03,106.26,11.51,99.26,8.52,114.65-4.89,183.91,6.91,37.34,6.36,67.09,16.08,85.83,23.02,24.52,99.76,49.04,199.52,73.56,299.29,1.43,6.4,4.52,23.76-2.04,43.74-7.28,22.16-21.8,33.45-26.57,36.84-138.28,62.16-276.55,124.32-414.83,186.48-11.05,3.43-26.65,6.52-44.96,4.6-11.93-1.25-21.63-4.26-27.94-6.64-9.52-3.58-17.28-7.94-23.15-11.78-89.91-197.22-179.83-394.44-269.74-591.67Z"/>
  <g>
    <path class="cls-3" d="M1879.88,1315.18c.5,.19,1,.55,1.49,.54,4.59-.05,9.19-.25,13.78-.26,25.02-.03,50.04-.02,75.06,0,2.59,0,5.18,0,7.75,.14,.76,.04,1.65,.37,1.8,1.07,.46,2.13,1.01,4.25,1.36,6.39,.84,5.06,1.57,10.13,2.37,15.2,.86,5.46,1.76,10.91,2.63,16.36,.72,4.48,1.48,8.96,2.13,13.44,1.38,9.56,2.69,19.12,4.06,28.67,1.45,10.14,2.99,20.28,4.4,30.42,.86,6.24,1.41,12.51,2.34,18.75,1.33,8.97,1.66,17.99,3.6,26.92-.04,1.17-.15,2.34-.12,3.5,.04,1.17,.35,2.34,.3,3.51-.04,.98,.89,1.81,.89,1.96,.45-2.44,2.21-5.62,1.44-8.99,.15-.38,.39-.75,.43-1.14,.73-7.04,1.38-14.08,2.17-21.12,.83-7.43,1.8-14.85,2.7-22.27,.59-4.88,1.16-9.77,1.74-14.65,.77-6.45,1.49-12.9,2.32-19.34,.85-6.64,1.78-13.27,2.69-19.91,.65-4.68,1.37-9.36,2-14.05,.81-6.05,1.51-12.11,2.35-18.16,1.16-8.39,2.39-16.77,3.6-25.16,.11-.75,1.2-1.42,2.31-1.46,1.43-.05,2.87-.1,4.3-.1,28.19,0,56.37,0,84.56,0,1.44,0,2.87,.04,4.31,.09,.98,.03,2.09,.96,1.97,1.62-.57,3.11-1.15,6.22-1.74,9.33-1.55,8.16-3.1,16.32-4.67,24.48-1.46,7.58-2.95,15.15-4.4,22.73-1.37,7.19-2.7,14.38-4.06,21.57-1.51,7.97-3.04,15.93-4.55,23.9-1.36,7.19-2.71,14.38-4.07,21.57-1.51,7.97-3.03,15.93-4.54,23.9-1.36,7.19-2.71,14.38-4.08,21.57-1.55,8.16-3.14,16.32-4.67,24.48-1.39,7.39-2.71,14.78-4.1,22.16-1.43,7.58-2.91,15.15-4.35,22.73-.33,1.75-.63,3.5-.92,5.25-.31,1.84-.78,2.62-4.48,2.58-1.73-.02-3.45,0-5.18,0-40.84,0-81.69,0-122.53,0-2.01,0-4.03,0-6.04-.04-1.82-.03-2.76-.56-3.02-1.62-.46-1.93-.95-3.86-1.36-5.8-1.96-9.31-3.86-18.63-5.86-27.93-2-9.3-4.12-18.6-6.14-27.9-1.39-6.4-2.68-12.8-4.05-19.2-1.45-6.79-2.95-13.57-4.42-20.35-1.35-6.2-2.68-12.41-4.02-18.61-1.59-7.36-3.21-14.73-4.78-22.09-1.4-6.59-2.73-13.19-4.13-19.79-1.36-6.4-2.76-12.79-4.15-19.19-1.43-6.59-2.87-13.18-4.3-19.77-1.51-6.98-3.02-13.95-4.51-20.93-1.41-6.59-2.79-13.19-4.2-19.78-.21-.97-.43-1.94-.83-2.87-.13-.3-.82-.67-1.27-.68-.43-.01-.87,.41-1.31,.64,0-.78,0-1.57,0-2.35Z"/>
    <path class="cls-3" d="M2384.05,1439.41c0-39.02,0-78.03,.01-117.05,0-1.95,.15-3.91,.36-5.86,.03-.29,.68-.74,1.13-.8,1.4-.17,2.84-.24,4.27-.24,12.94-.02,25.88-.02,38.83,0,14.95,.01,29.91-.07,44.86,.11,12.36,.15,24.72,.49,37.06,1.01,9.17,.38,18.34,1.03,27.39,2.2,6.79,.88,13.29,2.39,19.67,4.23,16.58,4.79,27.55,13.17,34.16,24.39,2.37,4.02,3.68,8.23,4.29,12.55,1.15,8.2,1.84,16.42,1.87,24.66,.04,15.1,.19,30.19,.21,45.29,.02,22.35-.02,44.7-.1,67.05-.02,5.29-.09,10.59-.49,15.88-.48,6.46-1.15,12.91-3.06,19.27-.98,3.28-2.56,6.42-4.67,9.44-4.76,6.81-12.34,11.71-22.13,15.1-9.34,3.23-19.34,4.87-29.7,5.66-12.31,.93-24.67,1.15-37.04,1.15-36.52,0-73.05,0-109.57,0-1.72,0-3.44-.06-5.16-.11-1.05-.03-2.03-.78-2.07-1.57-.05-1.17-.1-2.35-.11-3.53-.01-5.69,0-11.37,0-17.06v-101.76Zm92.64-.31c0,25.08,0,50.15,0,75.23,0,1.76,.12,3.52,.21,5.28,.03,.53,.93,1.19,1.57,1.21,5.52,.14,10.84-.55,16.02-1.83,4.43-1.1,7.07-3.33,8.13-6.36,.86-2.47,1.65-4.99,1.89-7.51,.62-6.45,1.25-12.91,1.27-19.37,.12-32.91,.11-65.82,0-98.74-.02-5.67-.66-11.35-1.05-17.02-.11-1.57-.52-3.09-1.34-4.58-1.75-3.17-5.02-5.34-9.62-6.24-4.96-.97-10.13-1.4-15.34-1.23-.54,.02-1.51,.78-1.53,1.26-.09,1.76-.22,3.52-.22,5.28-.01,24.88,0,49.76,0,74.64Z"/>
    <path class="cls-1" d="M2822.84,1729.66c0,26.28,.02,52.55-.01,78.83,0,5.04,1.05,4.38-6.95,4.4-15.25,.03-30.5,0-45.75,0-1.67,0-3.34,0-5.01-.08-.58-.03-1.16-.2-1.38-.66-1.25-2.65-2.57-5.29-3.79-7.95-9.36-20.38-18.7-40.77-28.06-61.16-.35-.76-.71-1.52-1.17-2.25-.11-.17-.64-.24-1-.34-.02,0-.26,.2-.27,.31-.11,1.18-.28,2.36-.29,3.54-.02,13.2-.01,26.41-.01,39.61,0,8.32,0,16.64,0,24.96,0,1.05-.08,2.11-.14,3.16-.01,.27-.83,.76-1.25,.77-.83,.02-1.66,.09-2.49,.09-16.29,0-32.59,0-48.88,0-.63,0-1.3,.06-1.86-.07-.5-.12-1.05-.41-1.27-.71-.24-.34-.18-.77-.19-1.17-.02-1.06-.01-2.11-.01-3.17,0-52.29,0-104.57,0-156.86,0-1.32,.06-2.64,.12-3.95,.02-.5,.84-.97,1.64-1,.83-.02,1.67-.04,2.5-.04,15.88,0,31.75,0,47.63,0,1.04,0,2.11-.03,3.12,.1,.53,.07,1.2,.4,1.38,.71,.94,1.6,1.78,3.23,2.6,4.87,10.55,21.12,21.09,42.24,31.63,63.36,.5,1,1.04,2,1.6,2.99,.04,.07,.38,.09,.59,.09,.15,0,.4-.03,.45-.09,.16-.24,.34-.49,.35-.74,.05-1.32,.07-2.64,.07-3.96,0-20.6,0-41.2,0-61.79,0-1.06,.03-2.11,0-3.17-.07-2.27,.8-2.35,3.46-2.36,.21,0,.42,0,.63,0,16.08,0,32.17,0,48.25,0,.63,0,1.25,.02,1.88,.03,1.04,.03,1.82,.57,1.85,1.31,.04,1.19,.04,2.38,.04,3.56,0,22.58,0,45.16,0,67.74,0,3.7,0,7.39,0,11.09Z"/>
    <path class="cls-1" d="M3003.24,1729.75c-.1,10.7-.08,21.39-.36,32.09-.14,5.41-.62,10.82-1.3,16.22-1.06,8.37-5.78,15.89-14.1,22.47-4.75,3.76-10.52,6.79-17.1,9.17-7.29,2.64-15.1,4.47-23.36,5.49-12,1.47-24.09,1.56-36.19,.68-8.12-.59-15.99-1.92-23.47-4.04-20.14-5.71-32.18-15.58-36.9-29.08-.98-2.82-1.26-5.76-1.51-8.65-.89-10.15-1.27-20.32-1.2-30.49,.1-13.73,0-27.47,.19-41.2,.09-6.2,.57-12.41,1.1-18.6,.37-4.35,1.28-8.67,3.58-12.82,5.4-9.74,14.97-17.25,29.39-22.25,6.28-2.18,12.95-3.6,19.86-4.68,10.88-1.7,21.92-1.91,33-1.41,9.41,.43,18.65,1.68,27.33,4.04,21.36,5.79,34.2,16,38.57,30.45,.63,2.08,.85,4.18,1.12,6.29,1.25,9.88,1.17,19.79,1.25,29.69,.04,5.55,0,11.09,0,16.64,.03,0,.06,0,.09,0Zm-67.27-.81c0-13.33,.04-26.66-.03-39.98-.02-3.43-.4-6.85-.56-10.28-.08-1.6-.61-3.15-1.44-4.64-.98-1.75-3.01-2.82-5.97-3.07-1.03-.09-2.08-.09-3.12-.08-3.44,.05-7.01,1.4-8.1,4.19-.75,1.92-1.33,3.87-1.39,5.86-.06,2.37-.22,4.75-.22,7.12-.02,27.05-.02,54.1,0,81.16,0,3.03,.05,6.07,.31,9.1,.17,1.97,.67,3.93,1.2,5.88,.32,1.2,1.42,2.2,2.99,2.93,4.02,1.87,12.61,1.65,14.52-3.23,.65-1.67,1.13-3.35,1.2-5.08,.19-4.22,.55-8.44,.57-12.66,.08-12.4,.03-24.81,.03-37.21Z"/>
    <path class="cls-3" d="M2632.49,1439.12c0-39.02-.01-78.04,.01-117.05,0-7.31-1.22-6.6,9.64-6.61,24.45-.01,48.89,0,73.34,0,2.01,0,4.03-.01,6.04,.02,2.68,.04,3.54,.64,3.59,2.49,.05,1.57,.03,3.14,.03,4.71,0,25.88,0,51.76,.02,77.64,0,2.15,.21,4.3,.34,6.45,0,.15,.21,.3,.32,.45,.42-.21,1.11-.36,1.23-.63,3.58-8.26,7.12-16.53,10.64-24.8,8.72-20.49,17.42-40.99,26.15-61.48,.56-1.31,1.24-2.6,1.98-3.87,.18-.31,.76-.6,1.25-.71,.8-.17,1.68-.25,2.53-.25,26.46,0,52.92,0,79.38,0,.57,0,1.13,.12,1.7,.16,.62,.04,1.36,.85,1.17,1.35-.43,1.13-.85,2.27-1.38,3.39-9.03,19.2-18.08,38.39-27.13,57.59-7.47,15.84-14.92,31.69-22.47,47.51-.66,1.38-.65,2.58-.05,3.97,6.3,14.65,12.47,29.33,18.72,43.99,12.19,28.57,24.4,57.14,36.59,85.71,.4,.94,.61,1.91,.88,2.87,.14,.51-.6,1.25-1.27,1.28-1.43,.06-2.86,.15-4.28,.15-27.61,0-55.22,.01-82.83,0-1.72,0-3.44-.07-5.14-.2-.47-.04-1.14-.35-1.27-.64-.71-1.49-1.36-2.99-1.89-4.52-10.48-29.9-20.93-59.8-31.4-89.7-.6-1.71-1.25-3.42-1.92-5.12-.05-.13-.44-.2-.67-.3-.6-.26-.88-.09-.91,.5-.08,2.15-.25,4.31-.25,6.46-.02,28.82-.01,57.64-.02,86.47,0,1.76-.04,3.53-.11,5.29-.04,.99-1.23,1.71-2.82,1.75-.86,.02-1.73,.02-2.59,.02-27.32,0-54.64,0-81.97,0-1.14,0-2.35,.03-3.41-.2-.65-.15-1.48-.75-1.52-1.19-.21-1.95-.22-3.91-.22-5.87,0-39.02,0-78.04,0-117.05Z"/>
    <path class="cls-3" d="M2135.69,1438.72c.15-13.72,.24-27.45,.49-41.17,.11-6.27,.63-12.54,.8-18.81,.15-5.31,.91-10.58,1.95-15.82,1.8-9.08,6.73-17.39,14.25-24.97,9.27-9.33,21.62-16.11,36.7-20.71,13.85-4.23,28.37-6.3,43.43-6.75,6.03-.18,12.08-.17,18.11-.03,14.78,.35,29.1,2.33,42.73,6.3,26.99,7.84,43.66,21.78,51.22,40.91,1.34,3.38,1.89,6.92,2.36,10.44,1.58,11.93,1.84,23.89,1.85,35.85,.04,27.06-.13,54.12-.17,81.18-.01,9.03-.52,18.05-1.95,27.01-3.32,20.88-17.89,36.87-45.06,47.26-9.64,3.69-20.03,5.84-30.75,7.4-11.9,1.74-23.95,1.88-36.05,1.68-13.35-.23-26.29-1.95-38.8-5.02-27.84-6.83-46.11-20-55.14-39.18-1.58-3.36-2.51-6.82-3.13-10.33-1.1-6.24-1.41-12.5-1.78-18.77-1.12-18.82-.92-37.64-1.06-56.46Zm121.76,.68c0-19.99-.03-39.99,.02-59.98,.01-5.69-.44-11.36-1.3-17.02-.24-1.55-.68-3.1-1.37-4.58-1.71-3.69-5.21-5.43-10.85-5.54-4.59-.09-8.48,.93-11.2,3.56-1.34,1.29-2.16,2.75-2.52,4.33-.9,3.87-1.66,7.75-1.67,11.69-.01,7.45-.13,14.9-.13,22.34,0,35.48,.03,70.96,.08,106.44,0,3.14,0,6.28,.3,9.4,.32,3.32,.81,6.65,1.6,9.93,.92,3.82,4.09,5.78,9.72,6.46,.56,.07,1.14,.13,1.71,.15,6.5,.29,11.11-1.88,12.85-6.18,.68-1.69,1.22-3.44,1.42-5.18,.81-7.03,1.41-14.08,1.39-21.14-.06-18.23-.02-36.46-.02-54.69Z"/>
    <path class="cls-3" d="M2975.68,1315.45c20.12,0,40.24,0,60.36,.01,1.71,0,3.43,.09,5.13,.25,.46,.04,.93,.44,1.21,.76,.29,.32,.43,.73,.51,1.11,2.45,11.63,4.86,23.26,7.35,34.89,1.99,9.3,4.09,18.59,6.08,27.89,1.42,6.59,2.72,13.18,4.12,19.77,1.44,6.78,2.96,13.56,4.41,20.34,1.41,6.59,2.77,13.18,4.16,19.77,1.39,6.59,2.78,13.18,4.19,19.77,1.45,6.78,2.93,13.56,4.39,20.34,1.51,6.97,3.02,13.95,4.51,20.92,1.4,6.59,2.77,13.18,4.16,19.77,1.44,6.78,2.9,13.56,4.35,20.34,1.37,6.39,2.76,12.79,4.12,19.18,.08,.39,.08,.78,.12,1.17,.08,.84-.75,1.6-1.82,1.64-1.44,.04-2.87,.07-4.31,.07-11.79,0-23.57,0-35.36,0-15.52,0-31.04,0-46.57,0-1.43,0-2.86-.07-4.29-.12-1.02-.04-2.02-.78-2.13-1.57-.11-.78-.21-1.56-.29-2.34-1.03-9.77-2.07-19.54-3.08-29.31-.32-3.13-.55-6.26-.85-9.39-.11-1.08-1.21-1.82-2.77-1.82-9.2-.02-18.39-.03-27.59-.02-1.65,0-2.77,.65-3,1.66-.18,.77-.35,1.55-.45,2.33-.59,4.68-1.19,9.37-1.73,14.06-.8,6.84-1.54,13.67-2.34,20.51-.18,1.56-.52,3.11-.83,4.66-.13,.65-1.41,1.31-2.49,1.33-.86,.02-1.72,.03-2.59,.03-28.46,0-56.91,0-85.37,0-1.15,0-2.3-.06-3.44-.1-.57-.02-1.54-.81-1.51-1.22,.08-.97,.09-1.96,.27-2.92,1.64-8.74,3.29-17.48,4.97-26.22,2.03-10.48,4.13-20.96,6.13-31.45,1.44-7.57,2.73-15.16,4.17-22.74,1.43-7.57,2.99-15.14,4.43-22.71,1.4-7.38,2.7-14.77,4.1-22.15,1.43-7.57,2.93-15.14,4.38-22.72,1.37-7.19,2.71-14.37,4.08-21.56,1.55-8.16,3.13-16.31,4.67-24.47,1.39-7.38,2.7-14.77,4.11-22.15,1.59-8.35,3.24-16.7,4.88-25.04,.11-.57,.29-1.17,.65-1.68,.21-.3,.81-.63,1.28-.66,1.99-.13,4-.2,6-.2,19.83-.01,39.67,0,59.5,0Zm2.53,159.48h0c3.44,0,6.89,.02,10.33,0,4.37-.03,4.77-.36,4.34-3.53-.16-1.17-.39-2.33-.61-3.49-.15-.78-.39-1.54-.5-2.32-1.36-9.54-2.72-19.07-4.06-28.61-.74-5.26-1.44-10.51-2.15-15.77-.94-7.01-1.91-14.02-2.77-21.03-.84-6.82-1.53-13.65-2.35-20.47-.12-.96-.55-1.9-.89-2.84-.04-.12-.52-.28-.7-.24-1.08,.27-.42-.64-.56,.14-1.55,8.14-3.12,16.28-4.62,24.42-1.71,9.31-3.38,18.62-5.04,27.94-.72,4.08-1.41,8.15-2.04,12.24-1.46,9.53-2.88,19.06-4.31,28.59-.09,.58-.12,1.17-.16,1.76-.2,2.78,.3,3.19,4.05,3.22,4.02,.02,8.03,0,12.05,0Z"/>
    <path class="cls-1" d="M2379.58,1729.3c1.57,6.99,2.97,13.39,4.45,19.78,1.87,8.09,3.84,16.17,5.71,24.26,1.45,6.26,2.79,12.54,4.22,18.8,1.01,4.44,2.1,8.87,3.13,13.31,.51,2.22,.95,4.44,1.43,6.66,.07,.32-.12,.53-.65,.56-1.44,.08-2.89,.2-4.33,.2-14.2,.02-28.4,0-42.6,0-5.85,0-11.69,0-17.54,0-.83,0-1.67-.04-2.47-.15-.34-.05-.62-.32-.86-.52-.11-.09-.11-.25-.13-.38-.34-2.5-.72-4.99-.99-7.49-.6-5.53-1.15-11.06-1.72-16.59-.05-.53-.09-1.05-.16-1.58-.42-3.44-.55-3.22-5.54-3.22-5.64,0-11.28,.01-16.91,.03-1.2,0-2.01,.48-2.12,1.17-.39,2.63-.79,5.25-1.13,7.88-.59,4.6-1.1,9.21-1.71,13.81-.28,2.1-.72,4.2-1.08,6.29-.09,.51-.76,.63-1.31,.68-1.03,.09-2.08,.07-3.13,.07-20.26,0-40.51,0-60.77,0-1.03,0-2.07-.05-3.08-.16-.3-.03-.77-.34-.76-.51,.11-1.45,.22-2.9,.51-4.33,1.12-5.63,2.28-11.25,3.45-16.87,1.06-5.1,2.19-10.19,3.23-15.3,1.02-4.97,1.96-9.95,2.97-14.92,1.04-5.1,2.12-10.2,3.18-15.3,.54-2.62,1.09-5.23,1.62-7.85,1.21-5.89,2.44-11.77,3.62-17.66,1.42-7.07,2.77-14.14,4.21-21.2,1.04-5.1,2.2-10.19,3.24-15.3,1.02-4.97,1.94-9.95,2.95-14.92,1.04-5.1,2.15-10.2,3.21-15.3,.35-1.7,.61-3.41,.96-5.11,.11-.52,.28-1.06,.65-1.51,.24-.3,.86-.57,1.39-.65,.79-.12,1.66-.08,2.49-.08,29.65,0,59.31,0,88.96,0,1.04,0,2.08,.04,3.11,.15,.33,.03,.75,.28,.87,.49,.35,.61,.67,1.25,.82,1.89,2.13,9.13,4.22,18.27,6.32,27.41,2.07,9.01,4.17,18.01,6.22,27.02,1.84,8.09,3.63,16.19,5.46,24.29,.21,.91,.51,1.82,.6,2.14Zm-65.06-41.68c.05-.35,.15-.7,.14-1.05,0-.21-.19-.41-.3-.61-.14,.21-.38,.41-.41,.63-.05,.36,.02,.72,.04,1.08-.16,.38-.4,.75-.48,1.14-1.23,5.75-2.46,11.5-3.64,17.25-.65,3.14-1.2,6.28-1.81,9.42-.65,3.4-1.34,6.8-1.95,10.21-.61,3.41-1.13,6.82-1.7,10.23-.63,3.8-1.29,7.6-1.88,11.41-.22,1.44-.28,2.9-.42,4.34-.01,.13-.02,.26-.02,.4-.02,.74,.7,1.28,1.79,1.29,3.96,.02,7.93,.02,11.89,.03,1.88,0,3.76,.01,5.63,0,3.01-.03,3.39-.29,3.05-2.02-.31-1.57-.59-3.14-.86-4.71-.57-3.41-1.12-6.82-1.66-10.23-.71-4.46-1.42-8.92-2.08-13.38-.58-3.94-1.09-7.88-1.63-11.82-.75-5.52-1.48-11.04-2.23-16.55-.32-2.36-.42-4.74-1.5-7.03Z"/>
    <path class="cls-1" d="M2128.96,1729.57c0,12.28-.03,24.56,.02,36.84,.02,3.83,.28,7.66,.38,11.48,.05,1.86,.67,3.67,1.29,5.47,.9,2.58,3.56,4.11,7.61,4.66,1.01,.14,2.08,.16,3.11,.16,5.67-.04,9.38-1.99,10.33-5.64,.65-2.47,1.05-4.98,1.25-7.48,.25-3.03,.22-6.07,.23-9.11,.03-5.68,0-11.36,.01-17.03,0-.66,.05-1.32,.09-1.98,.01-.23,.92-.7,1.34-.72,.83-.02,1.66-.08,2.5-.08,19.85,0,39.69,0,59.54,0,.83,0,1.65,.09,2.48,.13,.41,.02,1.2,.54,1.22,.8,.03,.4,.07,.79,.08,1.19,.24,7.93-.23,15.85-1.08,23.75-.52,4.87-1.56,9.7-3.35,14.47-2.19,5.82-6.69,10.79-13.25,15.02-11.44,7.37-25.19,12.04-41.35,13.85-8.27,.93-16.58,1.18-24.96,.99-7.95-.18-15.84-.65-23.56-1.91-9.17-1.49-17.8-3.74-25.52-7.27-9.43-4.32-16.07-9.91-19.56-16.97-1.69-3.41-2.85-6.89-3.63-10.42-1.62-7.33-2.47-14.7-2.48-22.1-.03-19.94,.04-39.88,.02-59.82,0-5.69,.64-11.35,1.3-17.01,1.13-9.59,7.27-17.79,17.7-24.73,3.03-2.02,6.48-3.74,10.17-5.25,7.77-3.19,16.2-5.4,25.23-6.74,14.24-2.11,28.57-2.14,42.94-.8,5.36,.5,10.67,1.28,15.8,2.41,11.63,2.57,21.8,6.59,30.02,12.46,4.49,3.21,7.7,6.86,9.81,10.93,1.57,3.02,2.52,6.13,3.34,9.25,.62,2.34,1.11,4.71,1.32,7.08,.47,5.54,.85,11.08,1.05,16.62,.17,4.62,.04,9.24,.03,13.86,0,.66,.04,1.33-.15,1.97-.1,.35-.58,.7-1.29,.74-.83,.05-1.66,.11-2.48,.11-19.85,0-39.69,0-59.54,0-.83,0-1.66-.06-2.49-.1-.42-.02-1.21-.52-1.21-.78-.03-1.19-.07-2.38-.08-3.56-.03-9.64-.04-19.28-.07-28.92-.01-3.04-.22-6.07-1.14-9.07-.24-.77-.56-1.54-.97-2.28-.9-1.65-2.93-2.56-5.49-2.93-2.67-.39-5.42-.38-8.09,.01-3.32,.48-5.58,1.82-6.49,3.88-.67,1.52-1.02,3.1-1.39,4.66-.22,.91-.24,1.84-.27,2.77-.13,3.56-.31,7.13-.33,10.69-.04,12.15-.02,24.3-.02,36.44Z"/>
    <path class="cls-1" d="M2520.82,1696.53c-8.56,0-17.13,0-25.69,0-1.25,0-2.52,.03-3.75-.1-.45-.05-1.06-.48-1.12-.78-.17-.91-.13-1.84-.14-2.77-.03-3.43,.07-6.87-.11-10.3-.11-2.24-.44-4.48-.98-6.7-.86-3.52-3.88-5.05-9.41-5.04-4.39,0-7.56,1.2-9.53,3.71-1.04,1.32-1.84,2.69-2.06,4.13-.72,4.61-.83,9.21,.84,13.78,1.02,2.79,3.1,5.14,6.36,7.12,3.94,2.4,8.46,4.29,13.02,6.15,7.19,2.93,14.44,5.8,21.63,8.74,7.37,3.01,14.38,6.35,21.08,9.92,3.03,1.62,5.91,3.35,8.73,5.11,6.22,3.88,10.51,8.52,13.06,13.78,2.08,4.3,3.36,8.7,4.16,13.17,1.09,6.05,1.21,12.12,1.02,18.19-.14,4.76-.98,9.48-2.43,14.15-.89,2.86-2.23,5.63-4.34,8.23-2.91,3.59-7.13,6.5-12.18,8.91-4.51,2.15-9.34,3.96-14.52,5.42-9.83,2.76-20.1,4.29-30.83,4.8-7.95,.38-15.87,.31-23.78-.18-14.15-.89-27.3-3.62-39.1-8.75-3.63-1.58-6.92-3.4-9.87-5.46-4.41-3.08-7.48-6.65-9.37-10.63-1.87-3.93-3.05-7.95-3.73-12.02-1.36-8.15-1.37-16.34-1.21-24.53,0-.25,.07-.53,.27-.74,.19-.21,.54-.46,.87-.49,1.02-.11,2.06-.17,3.1-.17,17.96,0,35.92,0,53.89,0,1.04,0,2.08,.07,3.12,.11,.43,.02,1.16,.52,1.17,.81,.03,.92,.07,1.85,.07,2.77,0,5.94,0,11.88,.01,17.82,0,2.78,.19,5.55,1.23,8.26,.29,.76,.74,1.51,1.24,2.22,.61,.87,1.72,1.5,2.97,1.99,5.76,2.25,13.6,.92,16.78-2.88,1.58-1.89,2.4-3.96,2.63-6.07,.57-5.29,.24-10.56-1.31-15.78-.31-1.03-.75-2.06-1.3-3.06-1.12-2.02-2.81-3.79-5.35-5.27-5.08-2.96-10.59-5.57-16.22-8.08-6.31-2.81-12.67-5.59-19.05-8.33-6.91-2.97-13.67-6.06-20.28-9.28-.33-.16-.66-.32-1-.48-11.27-5.23-17.88-12.41-21.6-20.76-1.59-3.56-2.43-7.21-2.8-10.92-.58-5.81-.42-11.62,.26-17.41,.46-3.95,1.54-7.84,3.24-11.67,3.32-7.5,10.58-13.06,20.8-17.19,6.74-2.73,14.11-4.55,21.87-5.72,15.45-2.31,31.04-2.38,46.67-.89,5.15,.49,10.25,1.23,15.21,2.27,8.59,1.8,16.57,4.32,23.54,8.02,5.75,3.05,9.74,6.81,11.83,11.4,1.74,3.83,2.75,7.73,3.22,11.68,.71,5.92,.97,11.86,.79,17.81-.01,.39,.03,.83-.22,1.16-.24,.3-.81,.65-1.3,.7-1.23,.12-2.49,.1-3.74,.1-8.77,0-17.54,0-26.32,0Z"/>
    <path class="cls-1" d="M2579.05,1729.67c0-26.26,0-52.53,0-78.79,0-1.32,.06-2.63,.13-3.95,.03-.5,.83-.95,1.66-.98,.63-.02,1.25-.04,1.88-.04,19.84,0,39.67,0,59.51,0,.83,0,1.69-.02,2.48,.1,.56,.09,1.09,.38,1.15,.84,.05,.39,.14,.78,.15,1.18,.02,1.06,0,2.11,0,3.17,0,52.13,0,104.26,0,156.39,0,1.32,0,2.64-.03,3.96-.02,.93-.73,1.33-2.39,1.33-7.31,0-14.62,0-21.92,0-12.32,0-24.64,0-36.96,0-1.46,0-2.92-.03-4.38-.05-.39,0-1.15-.54-1.16-.81-.04-1.32-.12-2.64-.12-3.95,0-26.13,0-52.26,0-78.39Z"/>
  </g>
</svg>